<?xml version="1.0" encoding="UTF-8"?>
<svg fill="none" width="670" height="377" viewBox="0 0 670 377" xmlns="http://www.w3.org/2000/svg">
<defs>
<style type="text/css"><![CDATA[
.bounce {
  animation: bouncing 4s ease-in-out infinite;
}
@keyframes bouncing {
  0%, 100% {
    transform: translateY(0);
  }
  50% {
    transform: translateY(-5px);
    transform-origin: center;
  }
}
.leaf-1 {
    animation-delay: 1s;
}
]]></style>
</defs>
<path d="m298.51 260.07c23.483-9.056 49.493-9.056 72.976 0l12.939 4.989c8.45 3.259 17.564 4.422 26.562 3.391l89.039-10.209c6.84-0.784 11.772 6.402 8.58 12.503-2.975 5.686 1.117 12.506 7.534 12.558l70.154 0.56c7.854 0.063 9.164 11.282 1.535 13.152-7.148 1.753-6.609 12.09 0.682 13.09l4.524 0.621c9.003 1.236 8.54 14.399-0.527 15l-31.353 2.075c-6.753 0.447-8.511 9.573-2.407 12.497 6.475 3.102 4.008 12.854-3.163 12.504l-89.742-4.382c-7.18-0.351-14.157 2.445-19.108 7.656l-3.562 3.751c-8.577 9.027-21.212 12.978-33.403 10.444l-54.135-11.252c-13.613-2.829-27.661-2.829-41.274 0l-54.135 11.252c-12.191 2.534-24.826-1.417-33.403-10.444l-3.562-3.751c-4.951-5.211-11.928-8.007-19.108-7.656l-89.742 4.382c-7.171 0.35-9.638-9.402-3.163-12.504 6.104-2.924 4.346-12.05-2.407-12.497l-31.353-2.075c-9.0673-0.601-9.5301-13.764-0.5274-15l4.5241-0.621c7.2916-1 7.8299-11.337 0.6817-13.09-7.6283-1.87-6.3184-13.089 1.5356-13.152l70.154-0.56c6.417-0.052 10.509-6.872 7.534-12.558-3.192-6.101 1.74-13.287 8.58-12.503l89.039 10.209c8.998 1.031 18.112-0.132 26.562-3.391l12.939-4.989z" fill="#000" fill-opacity=".06"/>
<path d="m327.8 245.78c4.631-1.786 9.761-1.786 14.392 0l50.507 19.477c3.014 1.162 6.264 1.577 9.474 1.209l97.851-11.219c6.84-0.784 11.772 6.402 8.58 12.503-2.975 5.686 1.117 12.506 7.534 12.558l70.154 0.56c7.854 0.063 9.164 11.282 1.535 13.152-7.148 1.753-6.609 12.09 0.682 13.09l4.524 0.621c9.003 1.236 8.54 14.399-0.527 15l-31.353 2.075c-6.753 0.447-8.511 9.573-2.407 12.497 6.475 3.102 4.008 12.854-3.163 12.504l-91.892-4.487c-5.815-0.284-11.465 1.98-15.475 6.201l-11.171 11.758c-4.768 5.019-11.792 7.216-18.57 5.807l-79.409-16.505c-2.685-0.558-5.455-0.558-8.14 0l-79.409 16.505c-6.778 1.409-13.802-0.788-18.57-5.807l-11.171-11.758c-4.01-4.221-9.66-6.485-15.475-6.201l-91.892 4.487c-7.171 0.35-9.638-9.402-3.163-12.504 6.104-2.924 4.346-12.05-2.407-12.497l-31.353-2.075c-9.0673-0.601-9.5301-13.764-0.5274-15l4.5241-0.621c7.2916-1 7.8299-11.337 0.6817-13.09-7.6283-1.87-6.3184-13.089 1.5356-13.152l70.154-0.56c6.417-0.052 10.509-6.872 7.534-12.558-3.192-6.101 1.74-13.287 8.58-12.503l97.851 11.219c3.21 0.368 6.46-0.047 9.474-1.209l50.507-19.477z" fill="url(#e)"/>
<ellipse cx="336.5" cy="289.5" rx="214.5" ry="31.5" fill="#120C37" fill-opacity=".15"/>
<path class="bounce leaf-1" d="m68.502 176.06c1.9264-0.674 3.9742-1.314 5.9882-0.964 3.368 0.586 5.7323 3.78 6.7359 7.062 1.0037 3.282 0.97 6.739 1.6099 10.108s2.169 6.853 5.1867 8.464c3.0177 1.61 6.581 0.977 9.9288 0.586 4.3909-0.507 8.8229-0.547 13.223-0.121 3.691 0.357 8.029 1.603 9.113 5.155 0.89 2.897-0.875 5.856-2.02 8.652-2.196 5.229-2.371 11.409 0.141 16.489 2.513 5.081 7.605 8.868 9.733 14.232 0.617 1.342 0.796 2.844 0.512 4.293-0.314 1.015-0.832 1.955-1.522 2.763-1.67 2.149-3.664 4.043-5.187 6.307-3.172 4.717-4.041 10.58-4.405 16.247-0.363 5.572-0.331 11.164 0.094 16.732-4.135-1.348-8.702-0.148-12.966-1.031-9.0735-1.874-14.738-12.615-23.98-13.269-4.3717-0.31-9.0733 1.752-12.973-0.249-1.8633-1.074-3.3214-2.731-4.1494-4.717-1.6484-3.514-2.0246-7.492-1.0642-11.253 0.6736-2.601 2.0207-5.149 1.758-7.824-0.2222-2.291-1.5964-4.313-3.1726-5.991-4.4928-4.77-11.013-7.688-14.24-13.396-1.4675-2.711-2.0798-5.803-1.7564-8.869 0.3235-3.066 1.5675-5.963 3.5683-8.308 1.1516-1.124 2.2421-2.31 3.267-3.551 1.5492-2.183 2.0207-4.939 2.2295-7.614 0.4446-6.409-0.6735-13.195 1.4213-19.421 1.8793-5.634 7.6184-8.625 12.926-10.512z" fill="#6C63FF" opacity=".6"/>
<path d="m68.596 176.25s18.396 102.2 42.281 114.4" opacity=".6" stroke="#535461" stroke-miterlimit="10"/>
<path d="m119.78 204.54s-19.703 2.695-39.385 22.945" opacity=".6" stroke="#535461" stroke-miterlimit="10"/>
<path d="m83.853 239.36s-15.162-14.825-38.853-12.311" opacity=".6" stroke="#535461" stroke-miterlimit="10"/>
<path d="m128.45 245.81s-27.671 2.352-37.916 12.979" opacity=".6" stroke="#535461" stroke-miterlimit="10"/>
<path d="m94.678 268.68s-15.493-2.696-29.793 6.435" opacity=".6" stroke="#535461" stroke-miterlimit="10"/>
<path d="m445.5 126.06c1.926-0.674 3.974-1.314 5.988-0.964 3.368 0.586 5.732 3.78 6.736 7.062 1.003 3.282 0.97 6.739 1.61 10.108s2.169 6.853 5.186 8.464c3.018 1.61 6.581 0.977 9.929 0.586 4.391-0.507 8.823-0.547 13.223-0.121 3.691 0.357 8.029 1.603 9.113 5.155 0.89 2.897-0.875 5.856-2.02 8.652-2.196 5.229-2.371 11.409 0.141 16.489 2.513 5.081 7.605 8.868 9.733 14.232 0.617 1.342 0.796 2.844 0.512 4.293-0.314 1.015-0.832 1.955-1.522 2.763-1.67 2.149-3.664 4.043-5.187 6.307-3.172 4.717-4.041 10.58-4.405 16.247-0.363 5.572-0.331 11.164 0.094 16.732-4.135-1.348-8.702-0.148-12.966-1.031-9.074-1.874-14.738-12.615-23.98-13.269-4.372-0.31-9.073 1.752-12.974-0.249-1.863-1.074-3.321-2.731-4.149-4.717-1.648-3.514-2.025-7.492-1.064-11.253 0.673-2.601 2.021-5.149 1.758-7.824-0.222-2.291-1.596-4.313-3.173-5.991-4.493-4.77-11.013-7.688-14.239-13.396-1.468-2.711-2.08-5.803-1.757-8.869 0.324-3.066 1.568-5.963 3.569-8.308 1.151-1.124 2.242-2.31 3.266-3.551 1.55-2.183 2.021-4.939 2.23-7.614 0.445-6.409-0.674-13.195 1.421-19.421 1.88-5.634 7.619-8.625 12.927-10.512z" fill="#6C63FF" opacity=".6"/>
<path d="m445.6 126.25s18.396 102.2 42.281 114.4" opacity=".6" stroke="#535461" stroke-miterlimit="10"/>
<path d="m496.78 154.54s-19.703 2.695-39.385 22.945" opacity=".6" stroke="#535461" stroke-miterlimit="10"/>
<path d="m460.85 189.36s-15.163-14.825-38.853-12.311" opacity=".6" stroke="#535461" stroke-miterlimit="10"/>
<path d="m505.45 195.81s-27.671 2.352-37.916 12.979" opacity=".6" stroke="#535461" stroke-miterlimit="10"/>
<path d="m471.68 218.68s-15.492-2.696-29.793 6.435" opacity=".6" stroke="#535461" stroke-miterlimit="10"/>
<path class="bounce leaf-2" d="m600.32 60.196c-2.76-0.9804-5.688-1.8766-8.568-1.3774-4.81 0.8421-8.201 5.4133-9.62 10.099s-1.389 9.6838-2.302 14.496c-0.914 4.8118-3.103 9.798-7.42 12.108-4.317 2.3096-9.415 1.3954-14.207 0.842-6.276-0.7319-12.612-0.7985-18.903-0.1985-5.285 0.5113-11.483 2.2977-13.035 7.3742-1.268 4.15 1.251 8.372 2.934 12.372 3.145 7.477 3.397 16.324-0.204 23.596-3.661 7.398-10.882 12.691-13.925 20.36-0.769 1.949-1.256 4.108-0.733 6.135 0.451 1.454 1.194 2.801 2.182 3.958 2.405 3.079 5.243 5.792 7.42 9.022 4.539 6.737 5.772 15.133 6.301 23.241 0.519 7.971 0.475 15.968-0.133 23.933 5.917-1.949 12.458-0.211 18.555-1.468 12.98-2.676 21.085-18.044 34.306-18.982 6.253-0.44 12.981 2.502 18.56-0.361 2.718-1.396 4.648-4 5.94-6.773 2.32-5.026 2.828-10.701 1.437-16.059-0.98-3.723-2.885-7.362-2.513-11.194 0.319-3.278 2.279-6.171 4.54-8.565 6.427-6.827 15.758-11.001 20.376-19.163 4.328-7.651 3.234-18.002-2.592-24.576-1.527-1.726-3.343-3.206-4.677-5.083-2.219-3.121-2.928-7.067-3.193-10.892-0.631-9.1728 0.926-18.875-2.038-27.782-2.706-8.1079-10.913-12.396-18.488-15.061z" fill="#462FD6" opacity=".6"/>
<path d="m600.16 60.436s-26.316 146.22-60.496 163.66" opacity=".6" stroke="#535461" stroke-miterlimit="10"/>
<path d="m526.94 100.91s28.186 3.873 56.348 32.834" opacity=".6" stroke="#535461" stroke-miterlimit="10"/>
<path d="m578.33 150.72s21.698-21.226 55.584-17.617" opacity=".6" stroke="#535461" stroke-miterlimit="10"/>
<path d="m514.56 159.95s39.586 3.363 54.244 18.574" opacity=".6" stroke="#535461" stroke-miterlimit="10"/>
<path d="m562.85 192.68s22.179-3.886 42.627 9.202" opacity=".6" stroke="#535461" stroke-miterlimit="10"/>
<path d="m116.01 0v297.85h437.06v-297.85h-437.06z" fill="url(#d)"/>
<path d="m548.44 13.515h-425.95v278.95h425.95v-278.95z" fill="#fff"/>
<path d="m548.44 0.24651h-425.95v20.522h425.95v-20.522z" fill="#eee"/>
<path d="m138.7 15.169c2.746 0 4.973-2.2271 4.973-4.9742 0-2.7472-2.227-4.9742-4.973-4.9742s-4.972 2.227-4.972 4.9742c0 2.7471 2.226 4.9742 4.972 4.9742z" fill="#FF5252"/>
<path d="m152.38 15.169c2.746 0 4.973-2.2271 4.973-4.9742 0-2.7472-2.227-4.9742-4.973-4.9742s-4.972 2.227-4.972 4.9742c0 2.7471 2.226 4.9742 4.972 4.9742z" fill="#ff0"/>
<path d="m166.06 15.169c2.746 0 4.972-2.2271 4.972-4.9742 0-2.7472-2.226-4.9742-4.972-4.9742-2.747 0-4.973 2.227-4.973 4.9742 0 2.7471 2.226 4.9742 4.973 4.9742z" fill="#69F0AE"/>
<path d="m205.59 40.147h-66.234c-2.209 0-4 1.7909-4 4v145.01c0 2.209 1.791 4 4 4h66.234c2.209 0 4-1.791 4-4v-145.01c0-2.2091-1.791-4-4-4z" fill="#eee" opacity=".5"/>
<path d="m327.74 200.36h-188.38c-2.209 0-4 1.791-4 4v65.476c0 2.21 1.791 4 4 4h188.38c2.209 0 4-1.79 4-4v-65.476c0-2.209-1.791-4-4-4z" fill="#eee" opacity=".5"/>
<path d="m287.02 40.147h-66.234c-2.209 0-4 1.7909-4 4v74.187c0 2.209 1.791 4 4 4h66.234c2.209 0 4-1.791 4-4v-74.187c0-2.2091-1.791-4-4-4z" fill="#eee" opacity=".5"/>
<path d="m287.02 128.39h-66.234c-2.209 0-4 1.791-4 4v56.765c0 2.209 1.791 4 4 4h66.234c2.209 0 4-1.791 4-4v-56.765c0-2.209-1.791-4-4-4z" fill="#eee" opacity=".5"/>
<path d="m201.99 44.692h-59.227c-2.209 0-4 1.7909-4 4v2.6048c0 2.2092 1.791 4 4 4h59.227c2.209 0 4-1.7908 4-4v-2.6048c0-2.2091-1.791-4-4-4z" fill="#462FD6" opacity=".5"/>
<path d="m201.99 59.842h-59.227c-2.209 0-4 1.7908-4 4v2.9835c0 2.2092 1.791 4 4 4h59.227c2.209 0 4-1.7908 4-4v-2.9835c0-2.2092-1.791-4-4-4z" fill="#462FD6" opacity=".5"/>
<path d="m205.28 83.118l-59.049 4.5957c-2.202 0.1715-3.849 2.0959-3.677 4.2984l0.202 2.5969c0.171 2.2025 2.096 3.849 4.298 3.6776l59.049-4.5958c2.202-0.1714 3.849-2.0958 3.677-4.2983l-0.202-2.597c-0.171-2.2024-2.096-3.8489-4.298-3.6775z" fill="#462FD6" opacity=".5"/>
<path d="m368.45 40.147h-66.234c-2.209 0-4 1.7909-4 4v145.01c0 2.209 1.791 4 4 4h66.234c2.209 0 4-1.791 4-4v-145.01c0-2.2091-1.791-4-4-4z" fill="#eee" opacity=".5"/>
<path d="m364.85 44.692h-59.227c-2.21 0-4 1.7909-4 4v11.945c0 2.2091 1.79 4 4 4h59.227c2.209 0 4-1.7909 4-4.0001v-11.945c0-2.2091-1.791-4-4-4z" fill="#462FD6" opacity=".5"/>
<path d="m364.85 70.318h-59.227c-2.21 0-4 1.7909-4 4v12.657c0 2.2091 1.79 4 4 4h59.227c2.209 0 4-1.7909 4-4v-12.657c0-2.2091-1.791-4-4-4z" fill="#462FD6" opacity=".5"/>
<path d="m364.85 96.656h-59.227c-2.21 0-4 1.7909-4 3.9999v11.945c0 2.209 1.79 4 4 4h59.227c2.209 0 4-1.791 4-4v-11.945c0-2.209-1.791-3.9999-4-3.9999z" fill="#462FD6" opacity=".5"/>
<path d="m531.31 40.147h-66.233c-2.209 0-4 1.7909-4 4v145.01c0 2.209 1.791 4 4 4h66.233c2.21 0 4-1.791 4-4v-145.01c0-2.2091-1.79-4-4-4z" fill="#eee" opacity=".5"/>
<path d="m527.71 44.692h-59.227c-2.209 0-4 1.7909-4 4v13.74c0 2.2091 1.791 4 4 4h59.227c2.209 0 4-1.7909 4-4v-13.74c0-2.2091-1.791-4-4-4z" fill="#462FD6" opacity=".5"/>
<path d="m527.71 72.491h-59.227c-2.209 0-4 1.7909-4 4v14.516c0 2.2092 1.791 4 4 4h59.227c2.209 0 4-1.7908 4-4v-14.516c0-2.2091-1.791-4-4-4z" fill="#462FD6" opacity=".5"/>
<path d="m283.42 44.692h-59.227c-2.209 0-4 1.7909-4 4v2.6048c0 2.2092 1.791 4 4 4h59.227c2.209 0 4-1.7908 4-4v-2.6048c0-2.2091-1.791-4-4-4z" fill="#462FD6" opacity=".5"/>
<path d="m283.42 59.842h-59.227c-2.209 0-4 1.7908-4 4v2.9835c0 2.2092 1.791 4 4 4h59.227c2.209 0 4-1.7908 4-4v-2.9835c0-2.2092-1.791-4-4-4z" fill="#462FD6" opacity=".5"/>
<path d="m283.42 75.37h-59.227c-2.209 0-4 1.7909-4 4v2.6048c0 2.2092 1.791 4 4 4h59.227c2.209 0 4-1.7908 4-3.9999v-2.6049c0-2.2091-1.791-4-4-4z" fill="#462FD6" opacity=".5"/>
<path d="m283.42 90.898h-59.227c-2.209 0-4 1.7909-4 4v2.6048c0 2.2092 1.791 3.9998 4 3.9998h59.227c2.209 0 4-1.7906 4-3.9998v-2.6048c0-2.2091-1.791-4-4-4z" fill="#462FD6" opacity=".5"/>
<path d="m283.42 132.94h-59.227c-2.209 0-4 1.791-4 4v2.605c0 2.209 1.791 4 4 4h59.227c2.209 0 4-1.791 4-4v-2.605c0-2.209-1.791-4-4-4z" fill="#462FD6" opacity=".5"/>
<path d="m283.42 148.09h-59.227c-2.209 0-4 1.791-4 4v2.983c0 2.209 1.791 4 4 4h59.227c2.209 0 4-1.791 4-4v-2.983c0-2.209-1.791-4-4-4z" fill="#462FD6" opacity=".5"/>
<path d="m283.42 163.62h-59.227c-2.209 0-4 1.791-4 4v2.605c0 2.209 1.791 4 4 4h59.227c2.209 0 4-1.791 4-4v-2.605c0-2.209-1.791-4-4-4z" fill="#462FD6" opacity=".5"/>
<path d="m449.88 40.147h-66.234c-2.209 0-4 1.7909-4 4v74.187c0 2.209 1.791 4 4 4h66.234c2.209 0 4-1.791 4-4v-74.187c0-2.2091-1.791-4-4-4z" fill="#eee" opacity=".5"/>
<path d="m449.88 128.39h-66.234c-2.209 0-4 1.791-4 4v56.765c0 2.209 1.791 4 4 4h66.234c2.209 0 4-1.791 4-4v-56.765c0-2.209-1.791-4-4-4z" fill="#eee" opacity=".5"/>
<path d="m446.28 44.692h-59.226c-2.21 0-4 1.7909-4 4v2.6048c0 2.2092 1.79 4 3.999 4h59.227c2.21 0 4-1.7908 4-4v-2.6048c0-2.2091-1.79-4-4-4z" fill="#462FD6" opacity=".5"/>
<path d="m446.28 59.842h-59.227c-2.21 0-4 1.7908-4 4v2.9835c0 2.2092 1.79 4 4 4h59.227c2.209 0 4-1.7908 4-4v-2.9835c0-2.2092-1.791-4-4-4z" fill="#462FD6" opacity=".5"/>
<path d="m446.28 75.37h-59.227c-2.21 0-4 1.7909-4 4v2.6048c0 2.2092 1.79 4 4 4h59.227c2.209 0 4-1.7908 4-3.9999v-2.6049c0-2.2091-1.791-4-4-4z" fill="#462FD6" opacity=".5"/>
<path d="m446.28 132.94h-59.226c-2.21 0-4 1.791-4 4v2.605c0 2.209 1.79 4 3.999 4h59.227c2.21 0 4-1.791 4-4v-2.605c0-2.209-1.79-4-4-4z" fill="#462FD6" opacity=".5"/>
<path d="m446.28 148.09h-59.227c-2.21 0-4 1.791-4 4v2.983c0 2.209 1.79 4 4 4h59.227c2.209 0 4-1.791 4-4v-2.983c0-2.209-1.791-4-4-4z" fill="#462FD6" opacity=".5"/>
<path d="m323.38 205.66h-180.61c-2.209 0-4 1.791-4 4v2.604c0 2.21 1.791 4 4 4h180.61c2.209 0 4-1.79 4-4v-2.604c0-2.209-1.791-4-4-4z" fill="#462FD6" opacity=".5"/>
<path d="m323.38 220.81h-180.61c-2.209 0-4 1.791-4 4v2.984c0 2.209 1.791 4 4 4h180.61c2.209 0 4-1.791 4-4v-2.984c0-2.209-1.791-4-4-4z" fill="#462FD6" opacity=".5"/>
<path d="m531.5 200.36h-188.38c-2.209 0-4 1.791-4 4v65.476c0 2.21 1.791 4 4 4h188.38c2.209 0 4-1.79 4-4v-65.476c0-2.209-1.791-4-4-4z" fill="#eee" opacity=".5"/>
<path d="m527.14 205.66h-180.61c-2.209 0-4 1.791-4 4v2.604c0 2.21 1.791 4 4 4h180.61c2.209 0 4-1.79 4-4v-2.604c0-2.209-1.791-4-4-4z" fill="#462FD6" opacity=".5"/>
<path d="m527.14 220.81h-180.61c-2.209 0-4 1.791-4 4v2.984c0 2.209 1.791 4 4 4h180.61c2.209 0 4-1.791 4-4v-2.984c0-2.209-1.791-4-4-4z" fill="#462FD6" opacity=".5"/>
<path d="m527.14 236.34h-180.61c-2.209 0-4 1.791-4 4v2.605c0 2.209 1.791 4 4 4h180.61c2.209 0 4-1.791 4-4v-2.605c0-2.209-1.791-4-4-4z" fill="#462FD6" opacity=".5"/>
<rect x="271" y="50" width="13" height="3" rx="1.5" fill="#F68EB8"/>
<rect x="191" y="66" width="13" height="3" rx="1.5" fill="#F68EB8"/>
<rect x="352" y="111" width="13" height="3" rx="1.5" fill="#F68EB8"/>
<rect x="515" y="61" width="13" height="3" rx="1.5" fill="#F68EB8"/>
<path d="m141.54 268c-28.998-6.766-86.493-27.4-84.493-55.816 1.9999-28.415 69.494-43.975 117.99-58.07s166.59-20.184 162.99-64.836c-3.599-44.652-58.528-63.605-80.993-62.581-22.464 1.0235-48.496 12.742-44.496 54.688 5 52.432 88.97 144.62 196.46 144.62s159.12-14.448 201-71.886c38-52.114 44.5-106.61 44.5-106.61" stroke="#fff" stroke-dasharray="2 8" stroke-linecap="round" stroke-linejoin="round" stroke-width="4"/>
<g fill="#000" opacity=".1">
<path d="m580.58 148.01c-1.065 0.537-2.181 0.968-3.331 1.287l0.06 0.511c1.122-0.541 2.214-1.141 3.271-1.798z" opacity=".1"/>
<path d="m638.03 207.44c-0.336-2.406-13.918-17.659-17.309-36.335s-23.448-31.921-23.448-31.921-0.662 0.367-1.804 0.86c-3.051 1.311-6.018 2.808-8.886 4.481 1.903-1.002 3.847-1.928 5.832-2.778 1.148-0.494 1.803-0.86 1.803-0.86s20.027 13.232 23.448 31.92 16.973 33.959 17.31 36.335c0.217 1.498-2.675 4.884-7.479 7.867 6.595-3.278 10.792-7.777 10.533-9.569z" opacity=".1"/>
</g>
<path d="m198.49 116.39v2.908l-12.265-7.748 1.293-1.615 0.599 0.352 9.493-13.912v-8.0907l3.617 0.3221v-1.2931c9.558-10.979 10.519 1.2931 8.552 4.8453s-5.589 6.1334-5.589 6.1334c-2.013 1.6906-5.534 14.47-6.384 17.675l0.684 0.423z" fill="url(#c)"/>
<path d="m105.5 141.75s9.362 18.319 6.454 36.639c-0.976 6.159-0.568 9.922 0.407 12.216-0.268 2.481-0.949 4.899-2.012 7.155-3.551 7.427-3.551 15.175 0.966 24.217l1.293 46.793s1.615 21.952 0 26.475c-1.615 4.524 0.644 26.164 0.644 26.164h-0.322v11.945l24.187 0.649s5.669-2.692 6.675-4.704l12.154 3.738s13.377-2.304 5.534-5.494c-5.84-2.375-7.289-5.772-7.651-7.341l19.116-54.974s-3.552-46.793-16.465-62.96l-1.308-9.519h0.181l2.741-55.583 0.227 0.03h-0.066c7.069 1.13 14.28 1.019 21.31-0.327 2.108-0.375 4.175-0.953 6.172-1.726l0.368-0.146h0.075c1.496-0.613 2.907-1.418 4.196-2.395l8.049-12.332-12.265-8.453-4.195 5.988s-13.145-2.778-20.364-5.706c-3.361-1.372-6.937-2.14-10.564-2.269l-7.883-0.272-3.929-2.36 1.227-3.174c0.121-0.056 0.242-0.111 0.362-0.177l0.111-0.679c4.845-1.203 9.014-4.2819 11.59-8.5588 2.577-4.277 3.349-9.4022 2.149-14.249h0.256c-0.111-6.5409-2.113-7.1799-2.113-7.1799 0-6.6516-5.81-11.517-12.43-12.076-3.428-0.2362-6.873 0.066-10.207 0.8956-2.393 0.5713-4.549 1.8715-6.171 3.7209s-2.63 4.1568-2.884 6.6037c-8.648 2.3799-5.75 6.9083-5.886 8.6441-0.664 8.4529 2.012 13.449 4.98 16.362 1.257 1.3127 2.733 2.3956 4.362 3.2004l-1.887 3.778h-0.553l-1.54 4.529h-0.075l-1.68 1.086c-5.074 3.436-9.037 8.275-11.405 13.927s-3.039 11.871-1.931 17.898zm25.822 179.66v-14.526l6.132-42.939v-21.957l10.982 22.908-11.822 49.691-0.619-0.171-2.721 9.782c-0.888-0.738-1.56-1.701-1.947-2.788h-5e-3z" fill="url(#b)"/>
<path d="m196.03 92.579v7.7531l-9.236 13.535 9.236 6.013s4.105-15.819 6.318-17.681c0 0 3.477-2.4804 5.368-5.8918 1.892-3.4113 0.946-15.2-8.215-4.6541v1.2428l-3.471-0.317z" fill="#FDA57D"/>
<path d="m122.5 111.08l3.657-7.316c0.107-0.215 0.269-0.398 0.47-0.53 0.2-0.131 0.432-0.207 0.672-0.22l13.89-0.709c0.225-0.012 0.45 0.033 0.654 0.13s0.381 0.244 0.513 0.428c0.133 0.183 0.218 0.396 0.246 0.62 0.029 0.225 2e-3 0.453-0.08 0.663l-3.582 9.263c-0.106 0.275-0.298 0.507-0.548 0.662-0.249 0.155-0.543 0.225-0.835 0.199l-13.96-1.243c-0.22-0.019-0.431-0.091-0.616-0.211-0.185-0.119-0.338-0.281-0.446-0.473s-0.168-0.407-0.174-0.627c-6e-3 -0.221 0.042-0.439 0.139-0.636z" fill="#FDA57D"/>
<path d="m123.52 107.94l-2.359 6.918 24.227-0.87-9.306-5.585-12.562-0.463z" fill="#EDEEF9"/>
<path d="m185.09 114.91l1.237-1.55 10.544 6.204v2.792l-11.781-7.446z" fill="#EDEEF9"/>
<path d="m113.84 183.54c0.973 4.787 0.401 9.759-1.635 14.199-3.41 7.135-3.41 14.592 0.931 23.266l1.243 44.981s1.549 21.097 0 25.44c-1.55 4.342 0.608 25.132 0.608 25.132h17.371v-13.962l5.891-41.259v-21.102l10.564 22.028-12.073 50.879 15.816 6.515 19.85-57.082s-3.441-44.982-15.846-60.489l-2.334-16.91-40.386-1.636z" fill="#915D20"/>
<path d="m114.68 328.04v-11.477h17.677s1.243 4.654 9.307 5.585-3.723 6.516-3.723 6.516l-23.261-0.624z" fill="#333"/>
<path d="m133.78 320.89l3.078-11.069 17.034 4.744s-0.055 4.815 7.465 7.875c7.521 3.059-5.332 5.278-5.332 5.278l-22.245-6.828z" fill="#333"/>
<path d="m154.22 186.11l-40.391-1.635c0.501 2.409 0.604 4.884 0.307 7.326 1.846 4.347 5.811 3.16 5.811 3.16l35.339-1.087-1.066-7.764z" fill="#000" opacity=".1"/>
<path d="m121.97 112.28l-1.61 1.092c-4.871 3.3-8.677 7.947-10.952 13.374s-2.922 11.399-1.861 17.187c0 0 8.995 17.611 6.203 35.221s6.203 14.893 6.203 14.893l35.516-1.092 2.636-53.409s21.4 3.044 31.018-4.403l7.752-11.849-11.786-8.136-4.025 5.756s-12.632-2.666-19.569-5.484c-3.236-1.32-6.679-2.058-10.172-2.179l-29.353-0.971z" fill="#2FAED6"/>
<path d="m122.29 198.21s-2.173 10.858 10.237 28.851z" fill="#000" opacity=".1"/>
<path d="m158.25 139.58s14.886-4.961 21.4-4.961c6.515 0 5.428 2.813 5.428 2.813s-10.373 4.629-26.828 2.148z" fill="#000" opacity=".1"/>
<path d="m141.38 102.93l-5.926 0.709c-0.186 0-0.357 0.257-0.458 0.624 1.303 2.35 2.933 3.749 4.704 3.749 0.632-0.01 1.25-0.183 1.796-0.504l0.452-2.742c0.151-0.91-0.151-1.887-0.568-1.836z" fill="#000" opacity=".1"/>
<path d="m137.25 107.39c9.991 0 18.09-8.101 18.09-18.094s-8.099-18.093-18.09-18.093-18.09 8.1007-18.09 18.093 8.099 18.094 18.09 18.094z" fill="#FDA57D"/>
<path d="m152.64 79.049l-0.925 0.8352c-0.388 0.3551-0.68 0.8022-0.85 1.3001-0.169 0.4978-0.21 1.0303-0.12 1.5483 0.091 0.518 0.311 1.0047 0.64 1.4153 0.328 0.4106 0.755 0.7317 1.24 0.9338 0 0-8.104 8.1058-9.231 9.6102s0.186 5.4639 0.186 5.4639 3.582 6.597-15.263 5.087c0 0-12.435-2.636-11.117-19.411 0.131-1.6805-2.636-6.0378 5.654-8.2919 0.249-2.3547 1.223-4.5738 2.789-6.3498 1.565-1.776 3.645-3.0209 5.949-3.5622 3.205-0.7973 6.515-1.0876 9.81-0.8604 3.07 0.2694 5.927 1.6804 8.008 3.9542 2.081 2.2739 3.233 5.2453 3.23 8.3277z" fill="#000" opacity=".1"/>
<path d="m153.03 78.063s1.921 0.5937 2.012 6.8982l-2.732-0.1862s-6.318 16.906-5.654 14.702c2.45-8.1057-2.45-6.5962-3.582-5.0868s0.186 5.4642 0.186 5.4642 3.582 6.5966-15.263 5.0866c0 0-12.435-2.636-11.117-19.411 0.131-1.6805-2.636-6.0377 5.654-8.2919 0.247-2.3536 1.218-4.5723 2.781-6.3491s3.64-3.0236 5.942-3.5679c3.205-0.7973 6.515-1.0876 9.81-0.8604 6.379 0.5383 11.963 5.2227 11.963 11.603z" fill="#72351C"/>
<path d="m503.99 117.8l-54.6 22.949c-2.037 0.856-2.994 3.201-2.138 5.237l5.625 13.383c0.856 2.036 3.201 2.993 5.237 2.137l54.601-22.949c2.036-0.856 2.993-3.2 2.137-5.237l-5.624-13.382c-0.856-2.037-3.201-2.994-5.238-2.138z" fill="#462FD6" opacity=".5"/>
<path d="m503.99 119.34l-54.6 22.949c-2.037 0.856-2.994 3.201-2.138 5.237l5.625 13.383c0.856 2.036 3.201 2.993 5.237 2.137l54.601-22.948c2.036-0.856 2.993-3.201 2.137-5.238l-5.624-13.382c-0.856-2.037-3.201-2.994-5.238-2.138z" fill="#462FD6" opacity=".5"/>
<path d="m587.7 214.42c0.357-0.457 0.552-1.02 0.554-1.601v-0.044c0-0.011 0.033-0.117 0.05-0.172v-0.072c2e-3 -0.054 2e-3 -0.107 0-0.161v-0.066c6e-3 -0.067 6e-3 -0.133 0-0.2-0.327-2.216-13.492-16.655-16.782-34.269-0.364-1.918-0.907-3.797-1.623-5.613 0.101-0.908 0.041-1.827-0.177-2.715-0.554-2.255-1.662-4.543-1.108-6.793 0.078-0.294 0.18-0.581 0.305-0.859 0.69-1.015 1.324-2.067 1.9-3.152 0.214-0.354 0.399-0.724 0.553-1.108 2.022-5.33-4.237-10.832-3.085-16.395 0.499-2.411 2.365-4.516 2.316-6.971-0.061-2.809-2.642-4.986-5.323-6.028-2.681-1.041-5.633-1.341-8.263-2.504-5.766-2.555-8.923-8.721-14.185-12.151-6.685-4.349-15.408-3.574-23.422-2.449-0.264 0.039-0.514 0.142-0.728 0.3-0.215 0.159-0.387 0.368-0.501 0.609h-0.078c-0.061 0.177-0.133 0.349-0.21 0.52-1.108 1.89-2.975 3.325-4.819 4.649-2.249 1.585-4.658 3.147-6.031 5.497-0.205 0.349-0.377 0.681-0.527 1.002-2.99 5.336 0.604 7.641 4.985 8.921-0.131 0.763-0.198 1.536-0.199 2.31 0 7.757 6.485 14.09 14.477 14.09 0.632 0 1.263-0.041 1.889-0.121l0.465 0.304h0.105c1.485 1.07 2.77 2.411 3.324 4.006l-4.642 3.546s0.189 0.488 0.466 1.264l-18.244 8.41c-6.912 0.322-18.1-21.459-18.1-21.459s-1.662-12.489-7.571-14.733c-1.784-0.675-2.493 0.737-2.615 3.042-2.641 2.771 1.795 18.329 1.795 18.329l14.151 24.983c1.318 2.56 1.661 4.161 7.898 5.125 5.134 0.787 21.129-4.898 26.695-6.959l0.261 2.216c-0.647 1.69-0.934 3.496-0.842 5.303 0 4.083 1.822 10.023 10.717 14.755 0 0 9.183 11.874 8.164 23.082 0 0 0.443 0.466 1.152 1.075-0.1 3.159-0.554 7.054-2.144 8.572-0.105 0.099-0.183 0.223-0.226 0.361-0.044 0.138-0.052 0.284-0.023 0.426-0.034 0.165-0.015 0.338 0.055 0.492 0.069 0.154 0.186 0.282 0.333 0.366l-11.592 20.307c-0.432 0.554-0.87 1.108-1.319 1.662-2.151 2.744-4.54 5.294-7.139 7.619-1.933 1.723-3.943 3.607-4.342 4.311-0.615 1.108-2.16 4.681-1.506 7.635 0.846 3.58 1.192 7.261 1.03 10.937l-1.501 26.269c-0.504 2.932-1.197 5.829-2.077 8.671h-0.227s-5.594 6.726-14.478 8.311c-8.884 1.584-8.557 6.095-5.926 6.726 2.631 0.632 34.555-0.642 34.555-0.642s1.207-2.355 0.875-4.505c10.191-0.981 24.308-2.643 24.308-2.643s1.933-4.649-0.875-6.677c-1.057-0.812-1.841-1.927-2.248-3.197-0.166-0.709-0.349-1.518-0.526-2.365-0.045-0.416-0.045-0.671-0.045-0.671h-0.094c-0.493-2.477-0.886-5.131-0.659-6.521 0.825-3.685 2.963-24.983-2.304-31.067-2.393-2.77-2.066-5.918-1.003-8.544 6.32-4.139 15.159-13.043 20.271-18.428 0.288 0.238 0.554 0.476 0.804 0.714l0.166 0.161s17.396-8.616 17.468-23.825c0.027-3.904-0.921-7.753-2.758-11.198zm-55.723 107.29c-0.031-0.555-0.011-1.112 0.061-1.662l-0.554-0.061c0.321-2.416 1.108-5.12 2.869-6.987 3.024-5.48 5.163-11.405 6.336-17.553l3.196 12.095s0.321 2.505 0.41 5.153h-0.056s-4.458 6.366-12.262 9.015z" fill="url(#a)" opacity=".5"/>
<path d="m546.42 165.05s-7.814 2.815-12.184 7.508c0 0-21.263 8.444-27.205 7.508-5.943-0.937-6.253-2.505-7.505-4.987l-13.448-24.379s-5.627-20.334 0-18.146c5.627 2.189 7.2 14.406 7.2 14.406s10.634 21.271 17.198 20.96l17.806-8.488s4.065-5.945 5.943-5.629c1.877 0.316 12.195 11.247 12.195 11.247z" fill="#FDB797"/>
<g opacity=".05">
<path d="m546.42 165.05s-7.814 2.815-12.184 7.508c0 0-21.263 8.444-27.205 7.508-5.943-0.937-6.253-2.505-7.505-4.987l-13.448-24.379s-5.627-20.334 0-18.146c5.627 2.189 7.2 14.406 7.2 14.406s10.634 21.271 17.198 20.96l17.806-8.488s4.065-5.945 5.943-5.629c1.877 0.316 12.195 11.247 12.195 11.247z" fill="#000" opacity=".05"/>
</g>
<path d="m533.58 153.52l-6.236 4.898s3.118 8.162 2.337 11.021 12.473-4.488 12.473-4.488l-5.456-12.245-3.118 0.814z" fill="#FFC020"/>
<path d="m522.81 148.07s13.913 4.538 7.505 12.511l20.011-9.696s-8.441 0.626-13.758-12.19l-13.758 9.375z" fill="#FDB797"/>
<path d="m549.08 229.71l-17.197 30.967 11.575 45.024s1.252 10.012-0.626 10.949h13.132s-2.531-8.866-1.877-11.885c0.781-3.596 2.813-24.379-2.216-30.341s2.504-13.763 2.504-13.763l15.009-23.776-20.304-7.175z" fill="#FDB797"/>
<g opacity=".05">
<path d="m549.08 229.71l-17.197 30.967 11.575 45.024s1.252 10.012-0.626 10.949h13.132s-2.342-8.915-1.877-11.885 2.813-24.379-2.216-30.341 2.504-13.763 2.504-13.763l15.009-23.776-20.304-7.175z" fill="#000" opacity=".05"/>
</g>
<path d="m543.79 310.76s-4.764 7.02-13.071 9.248c-8.308 2.227-7.632 6.571-5.09 6.992s32.677-3.23 32.677-3.23 1.833-4.538-0.831-6.522c-2.664-1.983-2.68-6.094-2.68-6.094l-11.005-0.394z" fill="#0D134D"/>
<g opacity=".1">
<path d="m550.02 217.2s0.743 10.172-1.966 12.843c-0.094 0.089-0.167 0.198-0.211 0.32s-0.059 0.253-0.042 0.382c0.016 0.129 0.062 0.252 0.135 0.359s0.171 0.195 0.284 0.258l8.053 4.294 7.201-13.763-13.454-4.693z" fill="#000" opacity=".1"/>
</g>
<path d="m550.02 216.89s0.743 10.173-1.966 12.844c-0.094 0.088-0.167 0.198-0.211 0.32s-0.059 0.253-0.042 0.382c0.016 0.128 0.062 0.251 0.135 0.359 0.073 0.107 0.171 0.195 0.284 0.257l8.053 4.295 7.201-13.764-13.454-4.693z" fill="#FF207A"/>
<path d="m550.33 236.91s-4.647 3.103-14.401 15.874c-2.039 2.674-4.309 5.164-6.784 7.441-1.833 1.663-3.744 3.524-4.126 4.211-0.587 1.059-2.055 4.577-1.429 7.458 0.804 3.501 1.134 7.094 0.98 10.683l-1.423 25.659s-1.878 11.574-4.376 12.826l12.822 2.217s-0.936-8.134 2.813-12.19c0 0 8.757-15.015 6.569-31.909 0 0-0.936-7.508 7.505-11.574 8.44-4.067 25.643-23.776 25.643-23.776l-23.793-6.92z" fill="#FDB797"/>
<path d="m520.94 316.68s-5.317 6.571-13.758 8.133c-8.441 1.563-8.131 5.945-5.627 6.572 2.503 0.626 32.832-0.627 32.832-0.627s2.216-4.377-0.31-6.571-1.878-6.255-1.878-6.255l-11.259-1.252z" fill="#0D134D"/>
<g opacity=".1">
<path d="m558.15 220.33s-3.816 12.821-8.651 16.556c-0.09 0.067-0.16 0.157-0.202 0.261-0.043 0.103-0.057 0.216-0.04 0.327 0.016 0.111 0.062 0.215 0.133 0.302 0.071 0.086 0.164 0.152 0.269 0.19 3.999 1.457 16.849 6.367 21.313 10.832l0.155 0.155s26.734-13.608 12.351-36.757l-25.328 8.134z" fill="#000" opacity=".1"/>
</g>
<path d="m558.15 220.02s-3.816 12.821-8.651 16.556c-0.09 0.067-0.16 0.157-0.202 0.26-0.043 0.104-0.057 0.217-0.04 0.328 0.016 0.11 0.062 0.215 0.133 0.301 0.071 0.087 0.164 0.153 0.269 0.191 3.999 1.457 16.849 6.366 21.313 10.832l0.155 0.155s26.734-13.608 12.351-36.757l-25.328 8.134z" fill="#FF207A"/>
<g opacity=".1">
<path d="m536.19 156.44c-1.986 1.337-4.159 2.375-6.447 3.08l2.149 19.132s-5.023 11.248 9.344 19.105c0 0 8.723 11.597 7.754 22.545 0 0 4.68 5.02 7.809 3.773 3.129-1.246 0.31 0.626 0.936 0.316s1.872 2.51 11.57 0.028 16.616-9.026 16.289-11.22-12.778-16.301-15.863-33.516c-3.084-17.215-21.5-29.46-21.5-29.46s-0.609 0.338-1.662 0.787c-3.599 1.528-7.07 3.344-10.379 5.43z" fill="#000" opacity=".1"/>
</g>
<g fill="#000" opacity=".1">
<path d="m549.25 237c-0.011 0.135 0.022 0.269 0.095 0.382 0.074 0.114 0.182 0.199 0.309 0.244 3.445 1.258 13.459 5.076 19.02 8.965-4.813-3.889-15.054-7.929-19.424-9.591z" opacity=".1"/>
<path d="m583.48 211.88l-0.554 0.189c12.29 21.492-10.856 34.474-12.877 35.554 0.349 0.288 0.664 0.554 0.952 0.859l0.155 0.155s26.707-13.608 12.324-36.757z" opacity=".1"/>
</g>
<path d="m569.4 223.77c-9.692 2.504-10.944-0.31-11.57 0-0.625 0.31 2.216-1.562-0.936-0.31-3.151 1.252-7.815-3.757-7.815-3.757 0.045-0.554 0.067-1.069 0.067-1.607 0.033-10.461-7.909-20.916-7.909-20.916-14.4-7.818-9.382-19.082-9.382-19.082l-0.587-5.131-1.612-13.996c2.285-0.709 4.453-1.751 6.436-3.091 3.303-2.092 6.768-3.915 10.362-5.452 1.058-0.455 1.662-0.793 1.662-0.793s18.449 12.19 21.6 29.405 15.635 31.283 15.945 33.471c0.311 2.189-6.568 8.755-16.261 11.259z" fill="#FFC020"/>
<g opacity=".1">
<path d="m536.88 139l-13.758 9.386c1.897 0.658 3.7 1.558 5.367 2.676 4.686-0.659 7.555-4.017 9.488-8.15-0.754-1.208-0.421-2.289-1.097-3.912z" fill="#000" opacity=".1"/>
</g>
<path d="m526.25 150.89c7.598 0 13.757-6.162 13.757-13.763s-6.159-13.763-13.757-13.763-13.758 6.162-13.758 13.763 6.16 13.763 13.758 13.763z" fill="#FDB797"/>
<g opacity=".1">
<path d="m571.59 222.21c-9.692 2.505-10.944-0.31-11.57 0-0.626 0.311 2.215-1.562-0.936-0.31s-7.815-3.756-7.815-3.756c0.044-0.554 0.067-1.07 0.067-1.607 0.038-10.444-7.887-20.916-7.887-20.916-14.4-7.818-9.382-19.083-9.382-19.083l-0.582-5.136-1.523-13.248c-0.736 0.332-1.497 0.604-2.276 0.815l1.584 14.001 0.592 5.131s-4.984 11.264 9.382 19.082c0 0 7.926 10.472 7.887 20.916 0 0.554 0 1.07-0.066 1.607 0 0 4.691 4.987 7.815 3.757 3.123-1.23 0.31 0.626 0.936 0.31s1.877 2.504 11.57 0c4.397-1.138 8.518-3.157 12.112-5.934-3.048 1.976-6.393 3.452-9.908 4.371z" fill="#000" opacity=".1"/>
</g>
<path d="m545.64 167.77s-7.814 2.815-12.184 7.508c0 0-21.263 8.444-27.205 7.508-5.943-0.937-6.253-2.505-7.505-4.987l-13.448-24.379s-5.627-20.334 0-18.146c5.627 2.189 7.2 14.406 7.2 14.406s10.634 21.271 17.197 20.961l17.812-8.5s4.066-5.945 5.943-5.629c1.878 0.316 12.19 11.258 12.19 11.258z" fill="#FDB797"/>
<g opacity=".1">
<path d="m535.08 156.32s-6.486-0.593-8.363 7.541c-1.878 8.134 14.4 13.137 14.4 13.137l8.756-12.19-14.793-8.488z" fill="#000" opacity=".1"/>
</g>
<path d="m535.4 156.32s-6.486-0.593-8.363 7.541c-1.878 8.134 14.4 13.137 14.4 13.137l8.756-12.19-14.793-8.488z" fill="#FFC020"/>
<g fill="#000" opacity=".1">
<path d="m532.75 157.77c-0.981 0.495-2.009 0.892-3.068 1.186l0.055 0.471c1.033-0.499 2.039-1.052 3.013-1.657z" opacity=".1"/>
<path d="m585.66 212.51c-0.31-2.216-12.821-16.267-15.945-33.471s-21.6-29.405-21.6-29.405-0.61 0.338-1.662 0.793c-2.81 1.207-5.544 2.586-8.186 4.127 1.754-0.923 3.545-1.776 5.373-2.559 1.057-0.455 1.661-0.793 1.661-0.793s18.449 12.19 21.6 29.405c3.152 17.215 15.636 31.283 15.946 33.471 0.199 1.38-2.465 4.499-6.89 7.248 6.076-3.02 9.941-7.165 9.703-8.816z" opacity=".1"/>
</g>
<path d="m539.11 156.45s8.086 4.006 9.609 11.708" opacity=".1" stroke="#000" stroke-miterlimit="10"/>
<g opacity=".1">
<path d="m519.34 136.35c1.29 0.289 2.73 0.693 3.367 1.851 0.46 0.842 0.377 1.901 0.825 2.77 1.152 2.172 4.531 1.424 6.646 2.699 3.877 2.338 1.346 9.63 5.207 11.979 0.725 0.443 1.584 0.62 2.331 1.025 3.263 1.784 2.803 6.505 2.216 10.178-0.587 3.674 0.11 8.699 3.794 9.22 2.027 0.282 4.303-1.058 6.009 0.066 0.892 0.588 1.296 1.663 2.044 2.444 0.513 0.512 1.165 0.863 1.876 1.01 0.71 0.147 1.448 0.083 2.122-0.185 1.252-0.52 2.155-1.712 3.456-2.094 2.094-0.615 4.431 1.08 6.447 0.299s2.476-3.695 1.955-5.895c-0.52-2.2-1.584-4.433-1.03-6.649 0.46-1.828 1.955-3.225 2.609-4.987 1.916-5.202-4.027-10.577-2.93-16.012 0.476-2.355 2.249-4.433 2.215-6.81-0.055-2.77-2.509-4.87-5.062-5.89-2.553-1.019-5.356-1.307-7.853-2.443-5.478-2.493-8.474-8.522-13.481-11.868-2.243-1.464-4.771-2.435-7.416-2.848-3.415-0.55-6.907-0.365-10.244 0.543-3.337 0.907-6.442 2.517-9.108 4.72-0.493 0.399-0.997 0.776-1.506 1.142-2.138 1.546-4.431 3.069-5.733 5.363-4.752 8.278 6.165 9.226 11.244 10.372z" fill="#000" opacity=".1"/>
</g>
<path d="m519.73 135.57c1.291 0.288 2.731 0.693 3.368 1.851 0.459 0.842 0.376 1.9 0.825 2.77 1.152 2.172 4.53 1.424 6.646 2.699 3.877 2.338 1.346 9.629 5.206 11.979 0.726 0.443 1.584 0.62 2.332 1.025 3.262 1.784 2.803 6.504 2.215 10.178-0.587 3.673 0.111 8.699 3.794 9.22 2.027 0.282 4.304-1.059 6.01 0.066 0.891 0.587 1.296 1.662 2.043 2.444 0.514 0.512 1.166 0.863 1.876 1.01 0.711 0.147 1.449 0.082 2.123-0.185 1.252-0.521 2.155-1.712 3.456-2.094 2.094-0.615 4.431 1.08 6.447 0.299s2.476-3.696 1.955-5.895c-0.521-2.2-1.584-4.433-1.03-6.649 0.46-1.829 1.955-3.225 2.609-4.987 1.916-5.203-4.027-10.577-2.93-16.013 0.476-2.354 2.248-4.432 2.215-6.809-0.055-2.77-2.509-4.87-5.062-5.89-2.553-1.019-5.356-1.307-7.854-2.443-5.477-2.494-8.474-8.522-13.48-11.869-2.035-1.335-4.312-2.258-6.702-2.715-3.519-0.675-7.144-0.564-10.616 0.325s-6.704 2.534-9.467 4.817c-0.487 0.394-0.991 0.77-1.49 1.108-2.137 1.546-4.43 3.07-5.732 5.364-4.752 8.3 6.17 9.253 11.243 10.394z" fill="#6F42C1"/>
<defs>
<linearGradient id="e" x1="6.9792" x2="670.98" y1="374" y2="368.81" gradientUnits="userSpaceOnUse">
<stop stop-color="#462FD6" offset=".15104"/>
<stop stop-color="#6F42C1" offset="1"/>
</linearGradient>
<linearGradient id="d" x1="1.9171e5" x2="1.9171e5" y1="1.475e5" gradientUnits="userSpaceOnUse">
<stop stop-color="#808080" stop-opacity=".25" offset="0"/>
<stop stop-color="#808080" stop-opacity=".12" offset=".54"/>
<stop stop-color="#808080" stop-opacity=".1" offset="1"/>
</linearGradient>
<linearGradient id="c" x1="-17145" x2="-17145" y1="13739" y2="11100" gradientUnits="userSpaceOnUse">
<stop stop-color="#808080" stop-opacity=".25" offset="0"/>
<stop stop-color="#808080" stop-opacity=".12" offset=".54"/>
<stop stop-color="#808080" stop-opacity=".1" offset="1"/>
</linearGradient>
<linearGradient id="b" x1="-75186" x2="-75186" y1="2.1881e5" y2="70713" gradientUnits="userSpaceOnUse">
<stop stop-color="#808080" stop-opacity=".25" offset="0"/>
<stop stop-color="#808080" stop-opacity=".12" offset=".54"/>
<stop stop-color="#808080" stop-opacity=".1" offset="1"/>
</linearGradient>
<linearGradient id="a" x1="1.0829e5" x2="1.0829e5" y1="1.5878e5" y2="68401" gradientUnits="userSpaceOnUse">
<stop stop-color="#808080" stop-opacity=".25" offset="0"/>
<stop stop-color="#808080" stop-opacity=".12" offset=".54"/>
<stop stop-color="#808080" stop-opacity=".1" offset="1"/>
</linearGradient>
</defs>
</svg>
